<mxfile host="app.diagrams.net" modified="2023-05-16T04:19:03.537Z" agent="Mozilla/5.0 (Macintosh; Intel Mac OS X 10_15_7) AppleWebKit/537.36 (KHTML, like Gecko) Chrome/113.0.0.0 Safari/537.36" version="21.2.9" etag="y6v1eByOl6c4Tz5-py0F" type="github">
  <diagram name="ページ1" id="Qcs7wPE8i4CHRJVxyf0n">
    <mxGraphModel>
      <root>
        <mxCell id="0" />
        <mxCell id="1" parent="0" />
      </root>
    </mxGraphModel>
  </diagram>
</mxfile>
